<?xml version="1.0" encoding="UTF-8"?>
<svg id="_圖層_1" data-name="圖層 1" xmlns="http://www.w3.org/2000/svg" viewBox="0 0 110 110">
  <defs>
    <style>
      .cls-1 {
        fill: #fff;
      }

      .cls-2, .cls-3 {
        fill: #b89a6a;
      }

      .cls-3 {
        stroke: #fff;
        stroke-miterlimit: 10;
        stroke-width: 3px;
      }
    </style>
  </defs>
  <circle class="cls-2" cx="55" cy="55" r="54"/>
  <g>
    <rect class="cls-3" x="16.23" y="48.59" width="11.97" height="15.88" rx="4.5" ry="4.5"/>
    <rect class="cls-3" x="80.2" y="48.59" width="11.97" height="15.88" rx="4.5" ry="4.5"/>
    <rect class="cls-3" x="26.66" y="53.8" width="11.97" height="15.88" rx="4.5" ry="4.5"/>
    <rect class="cls-3" x="68.74" y="53.8" width="11.97" height="15.88" rx="4.5" ry="4.5"/>
    <rect class="cls-3" x="39.29" y="56.71" width="15.21" height="17.48" rx="4.5" ry="4.5"/>
    <rect class="cls-3" x="54.56" y="56.71" width="15.21" height="17.48" rx="4.5" ry="4.5"/>
    <path class="cls-3" d="M88.89,54.86l-28.32,1.67c-3.67,.22-7.35,.21-11.02,0l-28.05-1.66c-5.45,0-9.9-3.23-9.9-7.17v-1.99c0-3.94,4.46-7.17,9.9-7.17H88.89c5.45,0,9.9,3.23,9.9,7.17v1.99c0,3.94-4.46,7.17-9.9,7.17Z"/>
  </g>
  <rect class="cls-1" x="23.53" y="29.94" width="7.47" height="8.41" rx="2.39" ry="2.39"/>
  <rect class="cls-1" x="36.17" y="28.47" width="7.47" height="11.17" rx="2.81" ry="2.81"/>
  <rect class="cls-1" x="67.5" y="28.47" width="7.47" height="11" rx="2.79" ry="2.79"/>
  <rect class="cls-1" x="79.3" y="29.94" width="7.47" height="9.7" rx="2.56" ry="2.56"/>
</svg>