<?xml version="1.0" encoding="UTF-8"?>
<svg id="_圖層_1" data-name="圖層 1" xmlns="http://www.w3.org/2000/svg" viewBox="0 0 110 110">
  <defs>
    <style>
      .cls-1, .cls-2 {
        fill: #b89a6a;
      }

      .cls-2, .cls-3 {
        stroke: #fff;
        stroke-linecap: round;
        stroke-linejoin: round;
        stroke-width: 3px;
      }

      .cls-3 {
        fill: none;
      }
    </style>
  </defs>
  <circle class="cls-1" cx="55" cy="55" r="54"/>
  <g>
    <path class="cls-2" d="M55.34,91.28h-.69c-3.96,0-7.19-3.24-7.19-7.19l-3.58-29.57h22.23l-3.58,29.57c0,3.96-3.24,7.19-7.19,7.19Z"/>
    <path class="cls-3" d="M72.37,43.93c4.35-7.46,4.31-14.15,3.18-18.56-.84-3.28-5.38-8.85-14.92-5.77-9.54,3.08-10.77-.62-17.23-.92-6.46-.31-8.92,3.08-9.54,10.46-.52,6.24,2.92,13.36,3.99,15.42,.15,.28,.25,.57,.34,.87h33.36c.25-.49,.52-.98,.82-1.5Z"/>
    <path class="cls-2" d="M70.48,46.55v6.22c0,1.69-1.64,3.08-3.64,3.08h-23.68c-2,0-3.64-1.39-3.64-3.08v-6.22"/>
    <line class="cls-3" x1="40.7" y1="70.08" x2="70.06" y2="59.74"/>
    <line class="cls-3" x1="42.23" y1="77.11" x2="68.66" y2="68.55"/>
    <line class="cls-3" x1="44.28" y1="84.25" x2="66.87" y2="77.49"/>
  </g>
</svg>